<svg id="envelope-solid" xmlns="http://www.w3.org/2000/svg" width="21.865" height="14.865" viewBox="0 0 21.865 14.865">
  <path id="envelope-solid-2" data-name="envelope-solid"
    d="M21.451,68.908a.26.26,0,0,1,.414.182v7.916a1.962,1.962,0,0,1-2.05,1.858H2.05A1.962,1.962,0,0,1,0,77.007V69.094a.258.258,0,0,1,.414-.182c.957.674,2.225,1.529,6.581,4.4.9.6,2.421,1.85,3.937,1.843,1.525.012,3.075-1.27,3.942-1.843C19.23,70.441,20.494,69.582,21.451,68.908Zm-10.518,5c.991.015,2.417-1.13,3.135-1.6,5.667-3.728,6.1-4.053,7.405-4.982a.9.9,0,0,0,.393-.732v-.735A1.962,1.962,0,0,0,19.815,64H2.05A1.962,1.962,0,0,0,0,65.858v.735a.9.9,0,0,0,.393.732C1.7,68.25,2.131,68.579,7.8,72.307,8.515,72.78,9.942,73.925,10.933,73.91Z"
    transform="translate(0 -64)" fill="#e68e15" />
</svg>