<svg id="github-brands" xmlns="http://www.w3.org/2000/svg" width="21.865" height="21.865" viewBox="0 0 21.865 21.865">
  <path id="github-brands-2" data-name="github-brands"
    d="M7.313,25.605c0,.09-.1.163-.229.163-.145.014-.247-.059-.247-.163s.1-.163.229-.163S7.313,25.5,7.313,25.605Zm-1.371-.2c-.031.09.057.194.19.222a.2.2,0,0,0,.273-.09c.026-.09-.057-.194-.19-.235a.224.224,0,0,0-.273.1Zm1.948-.077c-.128.032-.216.118-.2.222s.128.149.26.118.216-.118.2-.208S8.019,25.312,7.891,25.325ZM10.792,8A10.708,10.708,0,0,0,0,19.032,11.318,11.318,0,0,0,7.472,29.846c.564.1.763-.253.763-.547s-.013-1.827-.013-2.776c0,0-3.086.678-3.734-1.347,0,0-.5-1.316-1.226-1.655,0,0-1.01-.71.071-.7a2.317,2.317,0,0,1,1.7,1.166,2.3,2.3,0,0,0,3.214.945,2.538,2.538,0,0,1,.705-1.524c-2.464-.28-4.951-.647-4.951-5a3.472,3.472,0,0,1,1.04-2.663,4.374,4.374,0,0,1,.115-3.07C6.079,12.39,8.2,13.9,8.2,13.9a10.164,10.164,0,0,1,5.537,0s2.12-1.519,3.042-1.221a4.372,4.372,0,0,1,.115,3.07,3.555,3.555,0,0,1,1.137,2.663c0,4.363-2.6,4.711-5.061,5a2.71,2.71,0,0,1,.749,2.1c0,1.524-.013,3.409-.013,3.78,0,.294.2.651.763.547a11.217,11.217,0,0,0,7.4-10.806A10.941,10.941,0,0,0,10.792,8ZM4.285,23.594c-.057.045-.044.149.031.235s.172.1.229.045.044-.149-.031-.235S4.342,23.535,4.285,23.594Zm-.476-.366c-.031.059.013.131.1.176a.129.129,0,0,0,.19-.032c.031-.059-.013-.131-.1-.176C3.91,23.169,3.84,23.182,3.809,23.227Zm1.428,1.61c-.071.059-.044.194.057.28.1.1.229.118.287.045s.031-.194-.057-.28C5.427,24.778,5.294,24.765,5.237,24.837Zm-.5-.665c-.071.045-.071.163,0,.267s.19.149.247.1a.21.21,0,0,0,0-.28C4.92,24.159,4.805,24.113,4.735,24.172Z"
    transform="translate(0 -8)" fill="#000000" />
</svg>