<svg id="linkedin-brands" xmlns="http://www.w3.org/2000/svg" width="21.865" height="21.865" viewBox="0 0 21.865 21.865">
  <path id="linkedin-brands-2" data-name="linkedin-brands"
    d="M20.3,32H1.557A1.569,1.569,0,0,0,0,33.576V52.288a1.569,1.569,0,0,0,1.557,1.576H20.3a1.573,1.573,0,0,0,1.562-1.576V33.576A1.573,1.573,0,0,0,20.3,32ZM6.608,50.741H3.368V40.307H6.613V50.741Zm-1.62-11.86A1.879,1.879,0,1,1,6.867,37,1.88,1.88,0,0,1,4.988,38.882Zm13.768,11.86H15.515V45.665c0-1.21-.024-2.767-1.684-2.767-1.689,0-1.947,1.318-1.947,2.679v5.164H8.643V40.307h3.109v1.425H11.8a3.413,3.413,0,0,1,3.07-1.684c3.28,0,3.89,2.162,3.89,4.973Z"
    transform="translate(0 -32)" fill="#0a66c2" />
</svg>