<svg xmlns="http://www.w3.org/2000/svg" xmlns:xlink="http://www.w3.org/1999/xlink" width="664.493" height="658.297"
    viewBox="0 0 664.493 658.297">
    <defs>
        <filter id="a" x="27" y="183.393" width="634.493" height="471.904" filterUnits="userSpaceOnUse">
            <feOffset dx="6" dy="6" input="SourceAlpha" />
            <feGaussianBlur stdDeviation="5" result="b" />
            <feFlood flood-color="#664c28" flood-opacity="0.5" />
            <feComposite operator="in" in2="b" />
            <feComposite in="SourceGraphic" />
        </filter>
        <filter id="c" x="0" y="156.393" width="664.493" height="501.904" filterUnits="userSpaceOnUse">
            <feOffset dx="-6" dy="-6" input="SourceAlpha" />
            <feGaussianBlur stdDeviation="10" result="d" />
            <feFlood flood-color="#fdfdfd" flood-opacity="2" />
            <feComposite operator="in" in2="d" />
            <feComposite in="SourceGraphic" />
        </filter>
        <filter id="e" x="422" y="6" width="202" height="475" filterUnits="userSpaceOnUse">
            <feOffset dx="3" dy="3" input="SourceAlpha" />
            <feGaussianBlur stdDeviation="3" result="f" />
            <feFlood flood-color="#664c28" flood-opacity="0.7" />
            <feComposite operator="in" in2="f" />
            <feComposite in="SourceGraphic" />
        </filter>
        <filter id="g" x="416" y="0" width="202" height="475" filterUnits="userSpaceOnUse">
            <feOffset dx="-3" dy="-3" input="SourceAlpha" />
            <feGaussianBlur stdDeviation="3" result="h" />
            <feFlood flood-color="#ffefd8" flood-opacity="0.5" />
            <feComposite operator="in" in2="h" />
            <feComposite in="SourceGraphic" />
        </filter>
    </defs>
    <g transform="translate(-24 -95)">
        <g transform="translate(60 287.393)">
            <g transform="matrix(1, 0, 0, 1, -36, -192.39)" filter="url(#a)">
                <path
                    d="M367.472,396.633c-20.561-22.879-33.878-51.676-38.671-82.938L264.713,421.307a13.835,13.835,0,0,1-24.4,0L5.6,25.219c-1.041-1.762-2.062-3.182-2.966-4.431C.891,18.365-.256,16.763.049,14.927.3,13.378,1.585,11.734,4.33,9.46A157.98,157.98,0,0,1,17.8,0H18.7c.295.587,7.111,14.489,13.212,25.059L202.452,312.145c2.787,4.826,6.29,7.474,9.867,7.474s7.079-2.648,9.867-7.474L387.857,25.059C394.011,14.4,402.279.128,402.352,0h21.132c4.239.224,8.383.427,12.381.63l1.157.053c17.146.833,31.956,1.559,43.18,3.331,12.212,1.933,19.008,5,21.385,9.631,1.588,3.086,1.262,6.865-.989,11.574l-66.461,111.6a126.456,126.456,0,0,1,31.518-3.974c37.079,0,71.949,16.069,98.172,45.26s40.666,67.992,40.666,109.269-14.442,80.078-40.666,109.259S502.734,441.9,465.655,441.9,393.7,425.824,367.472,396.633Zm36.3-137.393c0,51.2,39.12,92.848,87.212,92.848S578.2,310.437,578.2,259.24s-39.13-92.848-87.212-92.848S403.772,208.043,403.772,259.24Z"
                    transform="translate(36 192.39)" fill="#ece6df" />
            </g>
            <g transform="matrix(1, 0, 0, 1, -36, -192.39)" filter="url(#c)">
                <path
                    d="M367.472,396.633c-20.561-22.879-33.878-51.676-38.671-82.938L264.713,421.307a13.835,13.835,0,0,1-24.4,0L5.6,25.219c-1.041-1.762-2.062-3.182-2.966-4.431C.891,18.365-.256,16.763.049,14.927.3,13.378,1.585,11.734,4.33,9.46A157.98,157.98,0,0,1,17.8,0H18.7c.295.587,7.111,14.489,13.212,25.059L202.452,312.145c2.787,4.826,6.29,7.474,9.867,7.474s7.079-2.648,9.867-7.474L387.857,25.059C394.011,14.4,402.279.128,402.352,0h21.132c4.239.224,8.383.427,12.381.63l1.157.053c17.146.833,31.956,1.559,43.18,3.331,12.212,1.933,19.008,5,21.385,9.631,1.588,3.086,1.262,6.865-.989,11.574l-66.461,111.6a126.456,126.456,0,0,1,31.518-3.974c37.079,0,71.949,16.069,98.172,45.26s40.666,67.992,40.666,109.269-14.442,80.078-40.666,109.259S502.734,441.9,465.655,441.9,393.7,425.824,367.472,396.633Zm36.3-137.393c0,51.2,39.12,92.848,87.212,92.848S578.2,310.437,578.2,259.24s-39.13-92.848-87.212-92.848S403.772,208.043,403.772,259.24Z"
                    transform="translate(36 192.39)" fill="#ece6df" />
            </g>
        </g>
        <g transform="translate(452.493 107)">
            <g transform="matrix(1, 0, 0, 1, -428.49, -12)" filter="url(#e)"><text transform="translate(428 358)"
                    fill="#e68e15" font-size="412" font-family="MrEavesModOT-Bold, Mr Eaves Mod OT, mr-eaves-modern"
                    font-weight="700">
                    <tspan x="0" y="0">~</tspan>
                </text></g>
            <g transform="matrix(1, 0, 0, 1, -428.49, -12)" filter="url(#g)"><text transform="translate(428 358)"
                    fill="#e68e15" font-size="412" font-family="MrEavesModOT-Bold, Mr Eaves Mod OT, mr-eaves-modern"
                    font-weight="700">
                    <tspan x="0" y="0">~</tspan>
                </text></g>
        </g><text transform="translate(328.029 701.349) rotate(-60)" fill="#e68e2d" font-size="60"
            font-family="MrEavesModOT-Bold, Mr Eaves Mod OT, mr-eaves-modern" font-weight="700">
            <tspan x="0" y="0">Rachel </tspan>
        </text>
    </g>
</svg>